<?xml version="1.0" encoding="UTF-8" standalone="no"?><svg xmlns="http://www.w3.org/2000/svg" xmlns:xlink="http://www.w3.org/1999/xlink" contentScriptType="application/ecmascript" contentStyleType="text/css" height="275px" preserveAspectRatio="none" style="width:395px;height:275px;" version="1.1" viewBox="0 0 395 275" width="395px" zoomAndPan="magnify"><defs><filter height="300%" id="fm0w8kjuy04pc" width="300%" x="-1" y="-1"><feGaussianBlur result="blurOut" stdDeviation="2.0"/><feColorMatrix in="blurOut" result="blurOut2" type="matrix" values="0 0 0 0 0 0 0 0 0 0 0 0 0 0 0 0 0 0 .4 0"/><feOffset dx="4.0" dy="4.0" in="blurOut2" result="blurOut3"/><feBlend in="SourceGraphic" in2="blurOut3" mode="normal"/></filter></defs><g><!--MD5=[18d97ae85c5edb8f0adcaad201d89b9a]
class SearchInfoExpr--><rect codeLine="3" fill="#FEFECE" filter="url(#fm0w8kjuy04pc)" height="73.6094" id="SearchInfoExpr" style="stroke:#A80036;stroke-width:1.5;" width="123" x="105" y="7"/><ellipse cx="120" cy="23" fill="#ADD1B2" rx="11" ry="11" style="stroke:#A80036;stroke-width:1.0;"/><path d="M122.3438,18.6719 C121.4063,18.2344 120.8125,18.0938 119.9375,18.0938 C117.3125,18.0938 115.3125,20.1719 115.3125,22.8906 L115.3125,24.0156 C115.3125,26.5938 117.4219,28.4844 120.3125,28.4844 C121.5313,28.4844 122.6875,28.1875 123.4375,27.6406 C124.0156,27.2344 124.3438,26.7813 124.3438,26.3906 C124.3438,25.9375 123.9531,25.5469 123.4844,25.5469 C123.2656,25.5469 123.0625,25.625 122.875,25.8125 C122.4219,26.2969 122.4219,26.2969 122.2344,26.3906 C121.8125,26.6563 121.125,26.7813 120.3594,26.7813 C118.3125,26.7813 117.0156,25.6875 117.0156,23.9844 L117.0156,22.8906 C117.0156,21.1094 118.2656,19.7969 120,19.7969 C120.5781,19.7969 121.1875,19.9531 121.6563,20.2031 C122.1406,20.4844 122.3125,20.7031 122.4063,21.1094 C122.4688,21.5156 122.5,21.6406 122.6406,21.7656 C122.7813,21.9063 123.0156,22.0156 123.2344,22.0156 C123.5,22.0156 123.7656,21.875 123.9375,21.6563 C124.0469,21.5 124.0781,21.3125 124.0781,20.8906 L124.0781,19.4688 C124.0781,19.0313 124.0625,18.9063 123.9688,18.75 C123.8125,18.4844 123.5313,18.3438 123.2344,18.3438 C122.9375,18.3438 122.7344,18.4375 122.5156,18.75 L122.3438,18.6719 Z " fill="#000000"/><text fill="#000000" font-family="sans-serif" font-size="12" lengthAdjust="spacing" textLength="91" x="134" y="27.1543">SearchInfoExpr</text><line style="stroke:#A80036;stroke-width:1.5;" x1="106" x2="227" y1="39" y2="39"/><line style="stroke:#A80036;stroke-width:1.5;" x1="106" x2="227" y1="47" y2="47"/><text fill="#000000" font-family="sans-serif" font-size="11" font-style="italic" lengthAdjust="spacing" textLength="57" x="111" y="61.2104">interpret()</text><text fill="#000000" font-family="sans-serif" font-size="11" lengthAdjust="spacing" text-decoration="underline" textLength="33" x="111" y="74.0151">eval()</text><!--MD5=[0b650b50ce3f685bd074aa11a4beb381]
class LogicalSearchInfoExpr--><rect codeLine="8" fill="#FEFECE" filter="url(#fm0w8kjuy04pc)" height="86.4141" id="LogicalSearchInfoExpr" style="stroke:#A80036;stroke-width:1.5;" width="165" x="7" y="158"/><ellipse cx="22" cy="174" fill="#ADD1B2" rx="11" ry="11" style="stroke:#A80036;stroke-width:1.0;"/><path d="M24.3438,169.6719 C23.4063,169.2344 22.8125,169.0938 21.9375,169.0938 C19.3125,169.0938 17.3125,171.1719 17.3125,173.8906 L17.3125,175.0156 C17.3125,177.5938 19.4219,179.4844 22.3125,179.4844 C23.5313,179.4844 24.6875,179.1875 25.4375,178.6406 C26.0156,178.2344 26.3438,177.7813 26.3438,177.3906 C26.3438,176.9375 25.9531,176.5469 25.4844,176.5469 C25.2656,176.5469 25.0625,176.625 24.875,176.8125 C24.4219,177.2969 24.4219,177.2969 24.2344,177.3906 C23.8125,177.6563 23.125,177.7813 22.3594,177.7813 C20.3125,177.7813 19.0156,176.6875 19.0156,174.9844 L19.0156,173.8906 C19.0156,172.1094 20.2656,170.7969 22,170.7969 C22.5781,170.7969 23.1875,170.9531 23.6563,171.2031 C24.1406,171.4844 24.3125,171.7031 24.4063,172.1094 C24.4688,172.5156 24.5,172.6406 24.6406,172.7656 C24.7813,172.9063 25.0156,173.0156 25.2344,173.0156 C25.5,173.0156 25.7656,172.875 25.9375,172.6563 C26.0469,172.5 26.0781,172.3125 26.0781,171.8906 L26.0781,170.4688 C26.0781,170.0313 26.0625,169.9063 25.9688,169.75 C25.8125,169.4844 25.5313,169.3438 25.2344,169.3438 C24.9375,169.3438 24.7344,169.4375 24.5156,169.75 L24.3438,169.6719 Z " fill="#000000"/><text fill="#000000" font-family="sans-serif" font-size="12" lengthAdjust="spacing" textLength="133" x="36" y="178.1543">LogicalSearchInfoExpr</text><line style="stroke:#A80036;stroke-width:1.5;" x1="8" x2="171" y1="190" y2="190"/><text fill="#000000" font-family="sans-serif" font-size="11" lengthAdjust="spacing" textLength="95" x="13" y="204.2104">_expression: List</text><line style="stroke:#A80036;stroke-width:1.5;" x1="8" x2="171" y1="210.8047" y2="210.8047"/><text fill="#000000" font-family="sans-serif" font-size="11" lengthAdjust="spacing" textLength="57" x="13" y="225.0151">interpret()</text><text fill="#000000" font-family="sans-serif" font-size="11" font-style="italic" lengthAdjust="spacing" textLength="47" x="13" y="237.8198">fct(*arg)</text><!--MD5=[8f6afd779d490e1cdb74f383bcd7e8e9]
class TerminalSearchInfoExpr--><rect codeLine="17" fill="#FEFECE" filter="url(#fm0w8kjuy04pc)" height="73.6094" id="TerminalSearchInfoExpr" style="stroke:#A80036;stroke-width:1.5;" width="174" x="207.5" y="164"/><ellipse cx="222.5" cy="180" fill="#ADD1B2" rx="11" ry="11" style="stroke:#A80036;stroke-width:1.0;"/><path d="M224.8438,175.6719 C223.9063,175.2344 223.3125,175.0938 222.4375,175.0938 C219.8125,175.0938 217.8125,177.1719 217.8125,179.8906 L217.8125,181.0156 C217.8125,183.5938 219.9219,185.4844 222.8125,185.4844 C224.0313,185.4844 225.1875,185.1875 225.9375,184.6406 C226.5156,184.2344 226.8438,183.7813 226.8438,183.3906 C226.8438,182.9375 226.4531,182.5469 225.9844,182.5469 C225.7656,182.5469 225.5625,182.625 225.375,182.8125 C224.9219,183.2969 224.9219,183.2969 224.7344,183.3906 C224.3125,183.6563 223.625,183.7813 222.8594,183.7813 C220.8125,183.7813 219.5156,182.6875 219.5156,180.9844 L219.5156,179.8906 C219.5156,178.1094 220.7656,176.7969 222.5,176.7969 C223.0781,176.7969 223.6875,176.9531 224.1563,177.2031 C224.6406,177.4844 224.8125,177.7031 224.9063,178.1094 C224.9688,178.5156 225,178.6406 225.1406,178.7656 C225.2813,178.9063 225.5156,179.0156 225.7344,179.0156 C226,179.0156 226.2656,178.875 226.4375,178.6563 C226.5469,178.5 226.5781,178.3125 226.5781,177.8906 L226.5781,176.4688 C226.5781,176.0313 226.5625,175.9063 226.4688,175.75 C226.3125,175.4844 226.0313,175.3438 225.7344,175.3438 C225.4375,175.3438 225.2344,175.4375 225.0156,175.75 L224.8438,175.6719 Z " fill="#000000"/><text fill="#000000" font-family="sans-serif" font-size="12" lengthAdjust="spacing" textLength="142" x="236.5" y="184.1543">TerminalSearchInfoExpr</text><line style="stroke:#A80036;stroke-width:1.5;" x1="208.5" x2="380.5" y1="196" y2="196"/><line style="stroke:#A80036;stroke-width:1.5;" x1="208.5" x2="380.5" y1="204" y2="204"/><text fill="#000000" font-family="sans-serif" font-size="11" lengthAdjust="spacing" textLength="57" x="213.5" y="218.2104">interpret()</text><text fill="#000000" font-family="sans-serif" font-size="11" font-style="italic" lengthAdjust="spacing" textLength="58" x="213.5" y="231.0151">get_filter()</text><!--MD5=[4e4bd3825a28ab5c40f35d522751aaf9]
reverse link SearchInfoExpr to LogicalSearchInfoExpr--><path codeLine="14" d="M95.6943,96.044 C92.1158,100.742 88.9831,105.732 86.5,111 C79.7761,125.264 78.8866,142.29 80.2496,157.6134 " fill="none" id="SearchInfoExpr-backto-LogicalSearchInfoExpr" style="stroke:#A80036;stroke-width:1.0;"/><polygon fill="none" points="90.6105,91.23,109.282,81.212,100.9334,100.687,90.6105,91.23" style="stroke:#A80036;stroke-width:1.0;"/><text fill="#000000" font-family="sans-serif" font-size="13" lengthAdjust="spacing" textLength="52" x="87.5" y="124.0669">extends</text><!--MD5=[5f3ddfebb574b467f1892ba4571be64d]
link LogicalSearchInfoExpr to SearchInfoExpr--><path codeLine="15" d="M133.004,147.7787 C133.004,147.7787 141.385,134.356 144.5,128 C149.696,117.399 153.782,105.414 156.949,93.915 " fill="none" id="LogicalSearchInfoExpr-SearchInfoExpr" style="stroke:#A80036;stroke-width:1.0;"/><polygon fill="#A80036" points="160.143,81.24,154.0656,88.9901,158.9215,86.0885,161.8232,90.9445,160.143,81.24" style="stroke:#A80036;stroke-width:1.0;"/><line style="stroke:#A80036;stroke-width:1.0;" x1="158.9215" x2="156.966" y1="86.0885" y2="93.8455"/><polygon fill="#FFFFFF" points="126.171,157.6433,132.8757,154.9887,133.004,147.7787,126.2993,150.4333,126.171,157.6433" style="stroke:#A80036;stroke-width:1.0;"/><!--MD5=[e08c7e35c031be68aa4bd81ce76f5cae]
reverse link SearchInfoExpr to TerminalSearchInfoExpr--><path codeLine="22" d="M209.467,97.03 C227.597,118.984 248.26,144.0066 264.678,163.8871 " fill="none" id="SearchInfoExpr-backto-TerminalSearchInfoExpr" style="stroke:#A80036;stroke-width:1.0;"/><polygon fill="none" points="203.848,101.219,196.51,81.341,214.643,92.305,203.848,101.219" style="stroke:#A80036;stroke-width:1.0;"/><text fill="#000000" font-family="sans-serif" font-size="13" lengthAdjust="spacing" textLength="52" x="235.5" y="124.0669">extends</text><text fill="#888888" font-family="sans-serif" font-size="10" lengthAdjust="spacing" textLength="140" x="121.25" y="266.6963">Interpreter design pattern</text><!--MD5=[2af85a3f5f6dc1f9a9dc0faf2a0f37d3]
@startuml
footer Interpreter design pattern

class SearchInfoExpr {
    {abstract} interpret()
    {static} eval()
}

class LogicalSearchInfoExpr {
    _expression: List
    interpret()
    {abstract} fct(*arg)
}

SearchInfoExpr <|- - LogicalSearchInfoExpr : extends
LogicalSearchInfoExpr o- -> SearchInfoExpr

class TerminalSearchInfoExpr {
    interpret()
    {abstract} get_filter()
}

SearchInfoExpr <|- - TerminalSearchInfoExpr : extends
@enduml

PlantUML version 1.2021.5beta3(Unknown compile time)
(GPL source distribution)
Java Runtime: Java(TM) SE Runtime Environment
JVM: Java HotSpot(TM) 64-Bit Server VM
Default Encoding: UTF-8
Language: en
Country: US
--></g></svg>