<svg xmlns="http://www.w3.org/2000/svg" xmlns:xlink="http://www.w3.org/1999/xlink" contentStyleType="text/css" height="287px" preserveAspectRatio="none" style="width:437px;height:287px;background:#FFFFFF;" version="1.1" viewBox="0 0 437 287" width="437px" zoomAndPan="magnify"><defs/><g><!--class SearchInfoExpr--><g id="elem_SearchInfoExpr"><rect codeLine="3" fill="#F1F1F1" height="80.5938" id="SearchInfoExpr" rx="2.5" ry="2.5" style="stroke:#181818;stroke-width:0.5;" width="138.6748" x="108.65" y="7"/><ellipse cx="123.65" cy="23" fill="#ADD1B2" rx="11" ry="11" style="stroke:#181818;stroke-width:1;"/><path d="M126.6188,28.6406 Q126.0406,28.9375 125.4,29.0781 Q124.7594,29.2344 124.0563,29.2344 Q121.5563,29.2344 120.2281,27.5938 Q118.9156,25.9375 118.9156,22.8125 Q118.9156,19.6875 120.2281,18.0313 Q121.5563,16.375 124.0563,16.375 Q124.7594,16.375 125.4,16.5313 Q126.0563,16.6875 126.6188,16.9844 L126.6188,19.7031 Q125.9938,19.125 125.4,18.8594 Q124.8063,18.5781 124.1813,18.5781 Q122.8375,18.5781 122.15,19.6563 Q121.4625,20.7188 121.4625,22.8125 Q121.4625,24.9063 122.15,25.9844 Q122.8375,27.0469 124.1813,27.0469 Q124.8063,27.0469 125.4,26.7813 Q125.9938,26.5 126.6188,25.9219 L126.6188,28.6406 Z " fill="#000000"/><text fill="#000000" font-family="sans-serif" font-size="14" lengthAdjust="spacing" textLength="106.6748" x="137.65" y="27.8467">SearchInfoExpr</text><line style="stroke:#181818;stroke-width:0.5;" x1="109.65" x2="246.3248" y1="39" y2="39"/><line style="stroke:#181818;stroke-width:0.5;" x1="109.65" x2="246.3248" y1="47" y2="47"/><text fill="#000000" font-family="sans-serif" font-size="14" font-style="italic" lengthAdjust="spacing" textLength="72.29" x="114.65" y="63.9951">interpret()</text><text fill="#000000" font-family="sans-serif" font-size="14" lengthAdjust="spacing" text-decoration="underline" textLength="40.291" x="114.65" y="80.292">eval()</text></g><!--class LogicalSearchInfoExpr--><g id="elem_LogicalSearchInfoExpr"><rect codeLine="8" fill="#F1F1F1" height="96.8906" id="LogicalSearchInfoExpr" rx="2.5" ry="2.5" style="stroke:#181818;stroke-width:0.5;" width="187.9824" x="7" y="164.59"/><ellipse cx="22" cy="180.59" fill="#ADD1B2" rx="11" ry="11" style="stroke:#181818;stroke-width:1;"/><path d="M24.9688,186.2306 Q24.3906,186.5275 23.75,186.6681 Q23.1094,186.8244 22.4063,186.8244 Q19.9063,186.8244 18.5781,185.1838 Q17.2656,183.5275 17.2656,180.4025 Q17.2656,177.2775 18.5781,175.6213 Q19.9063,173.965 22.4063,173.965 Q23.1094,173.965 23.75,174.1213 Q24.4063,174.2775 24.9688,174.5744 L24.9688,177.2931 Q24.3438,176.715 23.75,176.4494 Q23.1563,176.1681 22.5313,176.1681 Q21.1875,176.1681 20.5,177.2463 Q19.8125,178.3088 19.8125,180.4025 Q19.8125,182.4963 20.5,183.5744 Q21.1875,184.6369 22.5313,184.6369 Q23.1563,184.6369 23.75,184.3713 Q24.3438,184.09 24.9688,183.5119 L24.9688,186.2306 Z " fill="#000000"/><text fill="#000000" font-family="sans-serif" font-size="14" lengthAdjust="spacing" textLength="155.9824" x="36" y="185.4367">LogicalSearchInfoExpr</text><line style="stroke:#181818;stroke-width:0.5;" x1="8" x2="193.9824" y1="196.59" y2="196.59"/><text fill="#000000" font-family="sans-serif" font-size="14" lengthAdjust="spacing" textLength="116.71" x="13" y="213.5851">_expression: List</text><line style="stroke:#181818;stroke-width:0.5;" x1="8" x2="193.9824" y1="220.8869" y2="220.8869"/><text fill="#000000" font-family="sans-serif" font-size="14" lengthAdjust="spacing" textLength="72.29" x="13" y="237.882">interpret()</text><text fill="#000000" font-family="sans-serif" font-size="14" font-style="italic" lengthAdjust="spacing" textLength="59.2607" x="13" y="254.1789">fct(*arg)</text></g><!--class TerminalSearchInfoExpr--><g id="elem_TerminalSearchInfoExpr"><rect codeLine="17" fill="#F1F1F1" height="80.5938" id="TerminalSearchInfoExpr" rx="2.5" ry="2.5" style="stroke:#181818;stroke-width:0.5;" width="200.4648" x="229.76" y="172.74"/><ellipse cx="244.76" cy="188.74" fill="#ADD1B2" rx="11" ry="11" style="stroke:#181818;stroke-width:1;"/><path d="M247.7288,194.3806 Q247.1506,194.6775 246.51,194.8181 Q245.8694,194.9744 245.1663,194.9744 Q242.6663,194.9744 241.3381,193.3337 Q240.0256,191.6775 240.0256,188.5525 Q240.0256,185.4275 241.3381,183.7712 Q242.6663,182.115 245.1663,182.115 Q245.8694,182.115 246.51,182.2712 Q247.1663,182.4275 247.7288,182.7244 L247.7288,185.4431 Q247.1038,184.865 246.51,184.5994 Q245.9163,184.3181 245.2913,184.3181 Q243.9475,184.3181 243.26,185.3962 Q242.5725,186.4587 242.5725,188.5525 Q242.5725,190.6462 243.26,191.7244 Q243.9475,192.7869 245.2913,192.7869 Q245.9163,192.7869 246.51,192.5212 Q247.1038,192.24 247.7288,191.6619 L247.7288,194.3806 Z " fill="#000000"/><text fill="#000000" font-family="sans-serif" font-size="14" lengthAdjust="spacing" textLength="168.4648" x="258.76" y="193.5867">TerminalSearchInfoExpr</text><line style="stroke:#181818;stroke-width:0.5;" x1="230.76" x2="429.2248" y1="204.74" y2="204.74"/><line style="stroke:#181818;stroke-width:0.5;" x1="230.76" x2="429.2248" y1="212.74" y2="212.74"/><text fill="#000000" font-family="sans-serif" font-size="14" lengthAdjust="spacing" textLength="72.29" x="235.76" y="229.7351">interpret()</text><text fill="#000000" font-family="sans-serif" font-size="14" font-style="italic" lengthAdjust="spacing" textLength="73.4795" x="235.76" y="246.032">get_filter()</text></g><!--reverse link SearchInfoExpr to LogicalSearchInfoExpr--><g id="link_SearchInfoExpr_LogicalSearchInfoExpr"><path codeLine="14" d="M106.7656,100.6114 C98.0256,109.3014 103.03,106.56 97.99,117.59 C91.45,131.91 90.23,148.78 91.27,164.26 " fill="none" id="SearchInfoExpr-backto-LogicalSearchInfoExpr" style="stroke:#181818;stroke-width:1;"/><polygon fill="none" points="119.53,87.92,102.5352,96.3566,110.9961,104.8662,119.53,87.92" style="stroke:#181818;stroke-width:1;"/><text fill="#000000" font-family="sans-serif" font-size="13" lengthAdjust="spacing" textLength="52.0508" x="98.99" y="130.6569">extends</text></g><!--link LogicalSearchInfoExpr to SearchInfoExpr--><g id="link_LogicalSearchInfoExpr_SearchInfoExpr"><path codeLine="15" d="M145.7411,154.1452 C152.0411,144.7252 151.35,144.62 155.99,134.59 C162.75,120 166.3005,108.8686 169.7405,93.8486 " fill="none" id="LogicalSearchInfoExpr-SearchInfoExpr" style="stroke:#181818;stroke-width:1;"/><polygon fill="none" points="139.07,164.12,145.7305,161.3563,145.7411,154.1452,139.0806,156.9089,139.07,164.12" style="stroke:#181818;stroke-width:1;"/><polygon fill="#181818" points="171.08,88,165.1717,95.8799,169.9638,92.8738,172.9698,97.6658,171.08,88" style="stroke:#181818;stroke-width:1;"/></g><!--reverse link SearchInfoExpr to TerminalSearchInfoExpr--><g id="link_SearchInfoExpr_TerminalSearchInfoExpr"><path codeLine="22" d="M227.0359,101.1223 C250.8459,126.7723 269.48,146.85 293.27,172.48 " fill="none" id="SearchInfoExpr-backto-TerminalSearchInfoExpr" style="stroke:#181818;stroke-width:1;"/><polygon fill="none" points="214.79,87.93,222.6385,105.2043,231.4334,97.0403,214.79,87.93" style="stroke:#181818;stroke-width:1;"/><text fill="#000000" font-family="sans-serif" font-size="13" lengthAdjust="spacing" textLength="52.0508" x="254.99" y="130.6569">extends</text></g><text fill="#888888" font-family="sans-serif" font-size="10" lengthAdjust="spacing" textLength="130.7178" x="146.2535" y="276.7629">Interpreter design pattern</text><!--SRC=[VO_12i8m38RlUueSfx0N6EBDms0tlKliqbgexMY23ERUtJgPmjpC8QJvuSjN7O9GXCgdtaPwpGsnDHvQbFJoMQOSCiEHCAfhvNKuT6s4FeDKFLvO8YePm4w4VFEEM52i6e3kwD9kc41rC5QXM-ITASt4R8CleROiu_O7_RsgbUHRZ6Rapv2xHr6iN2k1EY7VSBQSXwBOptuywPyetgnVyVzZQaZEshgKvwkoA-oFxHC0]--></g></svg>