<svg xmlns="http://www.w3.org/2000/svg" xmlns:xlink="http://www.w3.org/1999/xlink" contentStyleType="text/css" height="379px" preserveAspectRatio="none" style="width:283px;height:379px;background:#FFFFFF;" version="1.1" viewBox="0 0 283 379" width="283px" zoomAndPan="magnify"><defs/><g><!--class AbstractHandler--><g id="elem_AbstractHandler"><rect codeLine="3" fill="#F1F1F1" height="80.5938" id="AbstractHandler" rx="2.5" ry="2.5" style="stroke:#181818;stroke-width:0.5;" width="145.8936" x="69" y="7"/><ellipse cx="84" cy="23" fill="#ADD1B2" rx="11" ry="11" style="stroke:#181818;stroke-width:1;"/><path d="M86.9688,28.6406 Q86.3906,28.9375 85.75,29.0781 Q85.1094,29.2344 84.4063,29.2344 Q81.9063,29.2344 80.5781,27.5938 Q79.2656,25.9375 79.2656,22.8125 Q79.2656,19.6875 80.5781,18.0313 Q81.9063,16.375 84.4063,16.375 Q85.1094,16.375 85.75,16.5313 Q86.4063,16.6875 86.9688,16.9844 L86.9688,19.7031 Q86.3438,19.125 85.75,18.8594 Q85.1563,18.5781 84.5313,18.5781 Q83.1875,18.5781 82.5,19.6563 Q81.8125,20.7188 81.8125,22.8125 Q81.8125,24.9063 82.5,25.9844 Q83.1875,27.0469 84.5313,27.0469 Q85.1563,27.0469 85.75,26.7813 Q86.3438,26.5 86.9688,25.9219 L86.9688,28.6406 Z " fill="#000000"/><text fill="#000000" font-family="sans-serif" font-size="14" lengthAdjust="spacing" textLength="113.8936" x="98" y="27.8467">AbstractHandler</text><line style="stroke:#181818;stroke-width:0.5;" x1="70" x2="213.8936" y1="39" y2="39"/><text fill="#000000" font-family="sans-serif" font-size="14" font-style="italic" lengthAdjust="spacing" textLength="47.7148" x="75" y="55.9951">handle</text><line style="stroke:#181818;stroke-width:0.5;" x1="70" x2="213.8936" y1="63.2969" y2="63.2969"/><text fill="#000000" font-family="sans-serif" font-size="14" lengthAdjust="spacing" textLength="124.0518" x="75" y="80.292">set_next(handler)</text></g><!--class FileHandler--><g id="elem_FileHandler"><rect codeLine="8" fill="#F1F1F1" height="80.5938" id="FileHandler" rx="2.5" ry="2.5" style="stroke:#181818;stroke-width:0.5;" width="269.8857" x="7" y="164.6"/><ellipse cx="97.9077" cy="180.6" fill="#ADD1B2" rx="11" ry="11" style="stroke:#181818;stroke-width:1;"/><path d="M100.8765,186.2406 Q100.2983,186.5375 99.6577,186.6781 Q99.0171,186.8344 98.314,186.8344 Q95.814,186.8344 94.4858,185.1938 Q93.1733,183.5375 93.1733,180.4125 Q93.1733,177.2875 94.4858,175.6313 Q95.814,173.975 98.314,173.975 Q99.0171,173.975 99.6577,174.1313 Q100.314,174.2875 100.8765,174.5844 L100.8765,177.3031 Q100.2515,176.725 99.6577,176.4594 Q99.064,176.1781 98.439,176.1781 Q97.0952,176.1781 96.4077,177.2563 Q95.7202,178.3188 95.7202,180.4125 Q95.7202,182.5063 96.4077,183.5844 Q97.0952,184.6469 98.439,184.6469 Q99.064,184.6469 99.6577,184.3813 Q100.2515,184.1 100.8765,183.5219 L100.8765,186.2406 Z " fill="#000000"/><text fill="#000000" font-family="sans-serif" font-size="14" lengthAdjust="spacing" textLength="79.5703" x="118.4077" y="185.4467">FileHandler</text><line style="stroke:#181818;stroke-width:0.5;" x1="8" x2="275.8857" y1="196.6" y2="196.6"/><line style="stroke:#181818;stroke-width:0.5;" x1="8" x2="275.8857" y1="204.6" y2="204.6"/><text fill="#000000" font-family="sans-serif" font-size="14" font-style="italic" lengthAdjust="spacing" textLength="186.3818" x="13" y="221.5951">get_main(*args, **kwargs)</text><text fill="#000000" font-family="sans-serif" font-size="14" font-style="italic" lengthAdjust="spacing" textLength="257.8857" x="13" y="237.892">get_metadata_item(*args, **kwargs)</text></g><!--class CSVHandler--><g id="elem_CSVHandler"><rect fill="#F1F1F1" height="48" id="CSVHandler" rx="2.5" ry="2.5" style="stroke:#181818;stroke-width:0.5;" width="115.3643" x="9.26" y="306.19"/><ellipse cx="24.26" cy="322.19" fill="#ADD1B2" rx="11" ry="11" style="stroke:#181818;stroke-width:1;"/><path d="M27.2287,327.8306 Q26.6506,328.1275 26.01,328.2681 Q25.3694,328.4244 24.6662,328.4244 Q22.1662,328.4244 20.8381,326.7838 Q19.5256,325.1275 19.5256,322.0025 Q19.5256,318.8775 20.8381,317.2213 Q22.1662,315.565 24.6662,315.565 Q25.3694,315.565 26.01,315.7213 Q26.6662,315.8775 27.2287,316.1744 L27.2287,318.8931 Q26.6037,318.315 26.01,318.0494 Q25.4162,317.7681 24.7912,317.7681 Q23.4475,317.7681 22.76,318.8463 Q22.0725,319.9088 22.0725,322.0025 Q22.0725,324.0963 22.76,325.1744 Q23.4475,326.2369 24.7912,326.2369 Q25.4162,326.2369 26.01,325.9713 Q26.6037,325.69 27.2287,325.1119 L27.2287,327.8306 Z " fill="#000000"/><text fill="#000000" font-family="sans-serif" font-size="14" lengthAdjust="spacing" textLength="83.3643" x="38.26" y="327.0367">CSVHandler</text><line style="stroke:#181818;stroke-width:0.5;" x1="10.26" x2="123.6243" y1="338.19" y2="338.19"/><line style="stroke:#181818;stroke-width:0.5;" x1="10.26" x2="123.6243" y1="346.19" y2="346.19"/></g><!--class GDPHandler--><g id="elem_GDPHandler"><rect fill="#F1F1F1" height="48" id="GDPHandler" rx="2.5" ry="2.5" style="stroke:#181818;stroke-width:0.5;" width="117.1963" x="159.34" y="306.19"/><ellipse cx="174.34" cy="322.19" fill="#ADD1B2" rx="11" ry="11" style="stroke:#181818;stroke-width:1;"/><path d="M177.3088,327.8306 Q176.7306,328.1275 176.09,328.2681 Q175.4494,328.4244 174.7463,328.4244 Q172.2463,328.4244 170.9181,326.7838 Q169.6056,325.1275 169.6056,322.0025 Q169.6056,318.8775 170.9181,317.2213 Q172.2463,315.565 174.7463,315.565 Q175.4494,315.565 176.09,315.7213 Q176.7463,315.8775 177.3088,316.1744 L177.3088,318.8931 Q176.6838,318.315 176.09,318.0494 Q175.4963,317.7681 174.8713,317.7681 Q173.5275,317.7681 172.84,318.8463 Q172.1525,319.9088 172.1525,322.0025 Q172.1525,324.0963 172.84,325.1744 Q173.5275,326.2369 174.8713,326.2369 Q175.4963,326.2369 176.09,325.9713 Q176.6838,325.69 177.3088,325.1119 L177.3088,327.8306 Z " fill="#000000"/><text fill="#000000" font-family="sans-serif" font-size="14" lengthAdjust="spacing" textLength="85.1963" x="188.34" y="327.0367">GDPHandler</text><line style="stroke:#181818;stroke-width:0.5;" x1="160.34" x2="275.5363" y1="338.19" y2="338.19"/><line style="stroke:#181818;stroke-width:0.5;" x1="160.34" x2="275.5363" y1="346.19" y2="346.19"/></g><!--link AbstractHandler to AbstractHandler--><g id="link_AbstractHandler_AbstractHandler"><path codeLine="13" d="M221.3449,32.8872 C240.9849,33.6972 249.89,38.33 249.89,47.3 C249.89,56.26 246.9801,60.6616 227.3401,61.4616 " fill="none" id="AbstractHandler-AbstractHandler" style="stroke:#181818;stroke-width:1;"/><polygon fill="#181818" points="215.35,32.64,224.1775,37.0075,220.3458,32.846,224.5072,29.0143,215.35,32.64" style="stroke:#181818;stroke-width:1;"/><polygon fill="none" points="215.35,61.95,221.5078,65.7025,227.3401,61.4616,221.1822,57.7091,215.35,61.95" style="stroke:#181818;stroke-width:1;"/></g><!--reverse link AbstractHandler to FileHandler--><g id="link_AbstractHandler_FileHandler"><path codeLine="14" d="M141.94,105.96 C141.94,129.37 141.94,140.9 141.94,164.3 " fill="none" id="AbstractHandler-backto-FileHandler" style="stroke:#181818;stroke-width:1;"/><polygon fill="none" points="141.94,87.96,135.94,105.96,147.94,105.96,141.94,87.96" style="stroke:#181818;stroke-width:1;"/><text fill="#000000" font-family="sans-serif" font-size="13" lengthAdjust="spacing" textLength="52.0508" x="142.94" y="130.6669">extends</text></g><!--reverse link FileHandler to CSVHandler--><g id="link_FileHandler_CSVHandler"><path codeLine="15" d="M108.4459,260.9586 C96.3659,280.8186 91.52,288.78 81.2,305.75 " fill="none" id="FileHandler-backto-CSVHandler" style="stroke:#181818;stroke-width:1;"/><polygon fill="none" points="117.8,245.58,103.3197,257.8405,113.5721,264.0766,117.8,245.58" style="stroke:#181818;stroke-width:1;"/></g><!--reverse link FileHandler to GDPHandler--><g id="link_FileHandler_GDPHandler"><path codeLine="16" d="M175.8485,260.9069 C188.0785,280.7669 193.04,288.78 203.5,305.75 " fill="none" id="FileHandler-backto-GDPHandler" style="stroke:#181818;stroke-width:1;"/><polygon fill="none" points="166.41,245.58,170.7395,264.0531,180.9575,257.7608,166.41,245.58" style="stroke:#181818;stroke-width:1;"/></g><text fill="#888888" font-family="sans-serif" font-size="10" lengthAdjust="spacing" textLength="187.7979" x="41.0439" y="369.4722">Chain of responsibility design pattern</text><!--SRC=[RO_13e8m38RlUueUaSWB62y6envDJBoQuYekZetG9cgGTtSA90BsjFxx-lVlnNkX2j8h6WV-0XLnwHsRp5WZJz349dTGeWJAANMso0ohZAN2i-pGQHkcQmMXcEJaw27HjPLdNxN63cwWrLNJssoCfQ753vm7joA4YcAiSfv37D_kdzViBqY26WLFHgYOJeIDuyZB9F7ZEwRGAqa6AHSGxYEdMVsgNomz77kRoTzslU_wDm00]--></g></svg>