<?xml version="1.0" encoding="UTF-8" standalone="no"?><svg xmlns="http://www.w3.org/2000/svg" xmlns:xlink="http://www.w3.org/1999/xlink" contentScriptType="application/ecmascript" contentStyleType="text/css" height="371px" preserveAspectRatio="none" style="width:262px;height:371px;" version="1.1" viewBox="0 0 262 371" width="262px" zoomAndPan="magnify"><defs><filter height="300%" id="f5524rwb45187" width="300%" x="-1" y="-1"><feGaussianBlur result="blurOut" stdDeviation="2.0"/><feColorMatrix in="blurOut" result="blurOut2" type="matrix" values="0 0 0 0 0 0 0 0 0 0 0 0 0 0 0 0 0 0 .4 0"/><feOffset dx="4.0" dy="4.0" in="blurOut2" result="blurOut3"/><feBlend in="SourceGraphic" in2="blurOut3" mode="normal"/></filter></defs><g><!--MD5=[01b95d182fe8d23fc8b232b64dd5b18e]
class AbstractHandler--><rect codeLine="3" fill="#FEFECE" filter="url(#f5524rwb45187)" height="73.6094" id="AbstractHandler" style="stroke:#A80036;stroke-width:1.5;" width="129" x="63" y="7"/><ellipse cx="78" cy="23" fill="#ADD1B2" rx="11" ry="11" style="stroke:#A80036;stroke-width:1.0;"/><path d="M80.3438,18.6719 C79.4063,18.2344 78.8125,18.0938 77.9375,18.0938 C75.3125,18.0938 73.3125,20.1719 73.3125,22.8906 L73.3125,24.0156 C73.3125,26.5938 75.4219,28.4844 78.3125,28.4844 C79.5313,28.4844 80.6875,28.1875 81.4375,27.6406 C82.0156,27.2344 82.3438,26.7813 82.3438,26.3906 C82.3438,25.9375 81.9531,25.5469 81.4844,25.5469 C81.2656,25.5469 81.0625,25.625 80.875,25.8125 C80.4219,26.2969 80.4219,26.2969 80.2344,26.3906 C79.8125,26.6563 79.125,26.7813 78.3594,26.7813 C76.3125,26.7813 75.0156,25.6875 75.0156,23.9844 L75.0156,22.8906 C75.0156,21.1094 76.2656,19.7969 78,19.7969 C78.5781,19.7969 79.1875,19.9531 79.6563,20.2031 C80.1406,20.4844 80.3125,20.7031 80.4063,21.1094 C80.4688,21.5156 80.5,21.6406 80.6406,21.7656 C80.7813,21.9063 81.0156,22.0156 81.2344,22.0156 C81.5,22.0156 81.7656,21.875 81.9375,21.6563 C82.0469,21.5 82.0781,21.3125 82.0781,20.8906 L82.0781,19.4688 C82.0781,19.0313 82.0625,18.9063 81.9688,18.75 C81.8125,18.4844 81.5313,18.3438 81.2344,18.3438 C80.9375,18.3438 80.7344,18.4375 80.5156,18.75 L80.3438,18.6719 Z " fill="#000000"/><text fill="#000000" font-family="sans-serif" font-size="12" lengthAdjust="spacing" textLength="97" x="92" y="27.1543">AbstractHandler</text><line style="stroke:#A80036;stroke-width:1.5;" x1="64" x2="191" y1="39" y2="39"/><text fill="#000000" font-family="sans-serif" font-size="11" font-style="italic" lengthAdjust="spacing" textLength="38" x="69" y="53.2104">handle</text><line style="stroke:#A80036;stroke-width:1.5;" x1="64" x2="191" y1="59.8047" y2="59.8047"/><text fill="#000000" font-family="sans-serif" font-size="11" lengthAdjust="spacing" textLength="101" x="69" y="74.0151">set_next(handler)</text><!--MD5=[40d00155a463640e487a399d47f47feb]
class FileHandler--><rect codeLine="8" fill="#FEFECE" filter="url(#f5524rwb45187)" height="73.6094" id="FileHandler" style="stroke:#A80036;stroke-width:1.5;" width="220" x="17.5" y="158"/><ellipse cx="89.25" cy="174" fill="#ADD1B2" rx="11" ry="11" style="stroke:#A80036;stroke-width:1.0;"/><path d="M91.5938,169.6719 C90.6563,169.2344 90.0625,169.0938 89.1875,169.0938 C86.5625,169.0938 84.5625,171.1719 84.5625,173.8906 L84.5625,175.0156 C84.5625,177.5938 86.6719,179.4844 89.5625,179.4844 C90.7813,179.4844 91.9375,179.1875 92.6875,178.6406 C93.2656,178.2344 93.5938,177.7813 93.5938,177.3906 C93.5938,176.9375 93.2031,176.5469 92.7344,176.5469 C92.5156,176.5469 92.3125,176.625 92.125,176.8125 C91.6719,177.2969 91.6719,177.2969 91.4844,177.3906 C91.0625,177.6563 90.375,177.7813 89.6094,177.7813 C87.5625,177.7813 86.2656,176.6875 86.2656,174.9844 L86.2656,173.8906 C86.2656,172.1094 87.5156,170.7969 89.25,170.7969 C89.8281,170.7969 90.4375,170.9531 90.9063,171.2031 C91.3906,171.4844 91.5625,171.7031 91.6563,172.1094 C91.7188,172.5156 91.75,172.6406 91.8906,172.7656 C92.0313,172.9063 92.2656,173.0156 92.4844,173.0156 C92.75,173.0156 93.0156,172.875 93.1875,172.6563 C93.2969,172.5 93.3281,172.3125 93.3281,171.8906 L93.3281,170.4688 C93.3281,170.0313 93.3125,169.9063 93.2188,169.75 C93.0625,169.4844 92.7813,169.3438 92.4844,169.3438 C92.1875,169.3438 91.9844,169.4375 91.7656,169.75 L91.5938,169.6719 Z " fill="#000000"/><text fill="#000000" font-family="sans-serif" font-size="12" lengthAdjust="spacing" textLength="68" x="109.75" y="178.1543">FileHandler</text><line style="stroke:#A80036;stroke-width:1.5;" x1="18.5" x2="236.5" y1="190" y2="190"/><line style="stroke:#A80036;stroke-width:1.5;" x1="18.5" x2="236.5" y1="198" y2="198"/><text fill="#000000" font-family="sans-serif" font-size="11" font-style="italic" lengthAdjust="spacing" textLength="151" x="23.5" y="212.2104">get_main(*args, **kwargs)</text><text fill="#000000" font-family="sans-serif" font-size="11" font-style="italic" lengthAdjust="spacing" textLength="208" x="23.5" y="225.0151">get_metadata_item(*args, **kwargs)</text><!--MD5=[e61641a8e2a18fa95a99bf3f0ffce2df]
class CSVHandler--><rect fill="#FEFECE" filter="url(#f5524rwb45187)" height="48" id="CSVHandler" style="stroke:#A80036;stroke-width:1.5;" width="103" x="7" y="293"/><ellipse cx="22" cy="309" fill="#ADD1B2" rx="11" ry="11" style="stroke:#A80036;stroke-width:1.0;"/><path d="M24.3438,304.6719 C23.4063,304.2344 22.8125,304.0938 21.9375,304.0938 C19.3125,304.0938 17.3125,306.1719 17.3125,308.8906 L17.3125,310.0156 C17.3125,312.5938 19.4219,314.4844 22.3125,314.4844 C23.5313,314.4844 24.6875,314.1875 25.4375,313.6406 C26.0156,313.2344 26.3438,312.7813 26.3438,312.3906 C26.3438,311.9375 25.9531,311.5469 25.4844,311.5469 C25.2656,311.5469 25.0625,311.625 24.875,311.8125 C24.4219,312.2969 24.4219,312.2969 24.2344,312.3906 C23.8125,312.6563 23.125,312.7813 22.3594,312.7813 C20.3125,312.7813 19.0156,311.6875 19.0156,309.9844 L19.0156,308.8906 C19.0156,307.1094 20.2656,305.7969 22,305.7969 C22.5781,305.7969 23.1875,305.9531 23.6563,306.2031 C24.1406,306.4844 24.3125,306.7031 24.4063,307.1094 C24.4688,307.5156 24.5,307.6406 24.6406,307.7656 C24.7813,307.9063 25.0156,308.0156 25.2344,308.0156 C25.5,308.0156 25.7656,307.875 25.9375,307.6563 C26.0469,307.5 26.0781,307.3125 26.0781,306.8906 L26.0781,305.4688 C26.0781,305.0313 26.0625,304.9063 25.9688,304.75 C25.8125,304.4844 25.5313,304.3438 25.2344,304.3438 C24.9375,304.3438 24.7344,304.4375 24.5156,304.75 L24.3438,304.6719 Z " fill="#000000"/><text fill="#000000" font-family="sans-serif" font-size="12" lengthAdjust="spacing" textLength="71" x="36" y="313.1543">CSVHandler</text><line style="stroke:#A80036;stroke-width:1.5;" x1="8" x2="109" y1="325" y2="325"/><line style="stroke:#A80036;stroke-width:1.5;" x1="8" x2="109" y1="333" y2="333"/><!--MD5=[623ba41320d106d137587834102d4e78]
class GDPHandler--><rect fill="#FEFECE" filter="url(#f5524rwb45187)" height="48" id="GDPHandler" style="stroke:#A80036;stroke-width:1.5;" width="103" x="145" y="293"/><ellipse cx="160" cy="309" fill="#ADD1B2" rx="11" ry="11" style="stroke:#A80036;stroke-width:1.0;"/><path d="M162.3438,304.6719 C161.4063,304.2344 160.8125,304.0938 159.9375,304.0938 C157.3125,304.0938 155.3125,306.1719 155.3125,308.8906 L155.3125,310.0156 C155.3125,312.5938 157.4219,314.4844 160.3125,314.4844 C161.5313,314.4844 162.6875,314.1875 163.4375,313.6406 C164.0156,313.2344 164.3438,312.7813 164.3438,312.3906 C164.3438,311.9375 163.9531,311.5469 163.4844,311.5469 C163.2656,311.5469 163.0625,311.625 162.875,311.8125 C162.4219,312.2969 162.4219,312.2969 162.2344,312.3906 C161.8125,312.6563 161.125,312.7813 160.3594,312.7813 C158.3125,312.7813 157.0156,311.6875 157.0156,309.9844 L157.0156,308.8906 C157.0156,307.1094 158.2656,305.7969 160,305.7969 C160.5781,305.7969 161.1875,305.9531 161.6563,306.2031 C162.1406,306.4844 162.3125,306.7031 162.4063,307.1094 C162.4688,307.5156 162.5,307.6406 162.6406,307.7656 C162.7813,307.9063 163.0156,308.0156 163.2344,308.0156 C163.5,308.0156 163.7656,307.875 163.9375,307.6563 C164.0469,307.5 164.0781,307.3125 164.0781,306.8906 L164.0781,305.4688 C164.0781,305.0313 164.0625,304.9063 163.9688,304.75 C163.8125,304.4844 163.5313,304.3438 163.2344,304.3438 C162.9375,304.3438 162.7344,304.4375 162.5156,304.75 L162.3438,304.6719 Z " fill="#000000"/><text fill="#000000" font-family="sans-serif" font-size="12" lengthAdjust="spacing" textLength="71" x="174" y="313.1543">GDPHandler</text><line style="stroke:#A80036;stroke-width:1.5;" x1="146" x2="247" y1="325" y2="325"/><line style="stroke:#A80036;stroke-width:1.5;" x1="146" x2="247" y1="333" y2="333"/><!--MD5=[cdbf36d9c25aed7e70fbc72fd9bbd4c4]
link AbstractHandler to AbstractHandler--><path codeLine="13" d="M205.421,31.15 C218.206,32.981 227,37.264 227,44 C227,50.736 204.0631,56.952 204.0631,56.952 " fill="none" id="AbstractHandler-AbstractHandler" style="stroke:#A80036;stroke-width:1.0;"/><polygon fill="#FFFFFF" points="192.097,57.854,198.3807,61.3917,204.0631,56.952,197.7794,53.4143,192.097,57.854" style="stroke:#A80036;stroke-width:1.0;"/><polygon fill="#A80036" points="192.097,30.146,200.7709,34.8112,197.0829,30.5218,201.3722,26.8338,192.097,30.146" style="stroke:#A80036;stroke-width:1.0;"/><line style="stroke:#A80036;stroke-width:1.0;" x1="197.0829" x2="205.06" y1="30.5218" y2="31.123"/><!--MD5=[5522ba40bf08e5cba29eb9edc6f3a12a]
reverse link AbstractHandler to FileHandler--><path codeLine="14" d="M127.5,101.103 C127.5,120.07 127.5,140.734 127.5,157.747 " fill="none" id="AbstractHandler-backto-FileHandler" style="stroke:#A80036;stroke-width:1.0;"/><polygon fill="none" points="120.5,101.069,127.5,81.069,134.5,101.069,120.5,101.069" style="stroke:#A80036;stroke-width:1.0;"/><text fill="#000000" font-family="sans-serif" font-size="13" lengthAdjust="spacing" textLength="52" x="128.5" y="124.0669">extends</text><!--MD5=[ed9440a47b7a621ccd72f98b8bb78318]
reverse link FileHandler to CSVHandler--><path codeLine="15" d="M96.7903,249.4081 C88.0184,264.6637 78.9156,280.4947 71.7873,292.8917 " fill="none" id="FileHandler-backto-CSVHandler" style="stroke:#A80036;stroke-width:1.0;"/><polygon fill="none" points="90.7599,245.8528,106.7977,232.004,102.8966,252.8314,90.7599,245.8528" style="stroke:#A80036;stroke-width:1.0;"/><!--MD5=[d0da5f6012e05020b83e1de25c4f335a]
reverse link FileHandler to GDPHandler--><path codeLine="16" d="M158.21,249.4081 C166.982,264.6637 176.084,280.4947 183.213,292.8917 " fill="none" id="FileHandler-backto-GDPHandler" style="stroke:#A80036;stroke-width:1.0;"/><polygon fill="none" points="152.103,252.8314,148.202,232.004,164.24,245.8528,152.103,252.8314" style="stroke:#A80036;stroke-width:1.0;"/><text fill="#888888" font-family="sans-serif" font-size="10" lengthAdjust="spacing" textLength="202" x="23.5" y="363.2822">Chain of responsibility design pattern</text><!--MD5=[3e6c57676ae275730a07ff98c1559ea4]
@startuml
footer Chain of responsibility design pattern

class AbstractHandler {
    set_next(handler)
    {abstract} handle
}

class FileHandler {
    {abstract} get_main(*args, **kwargs)
    {abstract} get_metadata_item(*args, **kwargs)
}

AbstractHandler <- -o AbstractHandler
AbstractHandler <|- - FileHandler : extends
FileHandler <|- - CSVHandler
FileHandler <|- - GDPHandler
@enduml

PlantUML version 1.2021.2beta8(Unknown compile time)
(GPL source distribution)
Java Runtime: Java(TM) SE Runtime Environment
JVM: Java HotSpot(TM) 64-Bit Server VM
Default Encoding: UTF-8
Language: en
Country: US
--></g></svg>