<svg xmlns="http://www.w3.org/2000/svg" xmlns:xlink="http://www.w3.org/1999/xlink" contentStyleType="text/css" height="179px" preserveAspectRatio="none" style="width:534px;height:179px;background:#FFFFFF;" version="1.1" viewBox="0 0 534 179" width="534px" zoomAndPan="magnify"><defs/><g><rect fill="#FFFFFF" height="87.3984" style="stroke:#181818;stroke-width:1;" width="10" x="256.2461" y="67.4297"/><rect fill="#FFFFFF" height="29.1328" style="stroke:#181818;stroke-width:1;" width="10" x="473.4414" y="96.5625"/><line style="stroke:#181818;stroke-width:0.5;stroke-dasharray:5.0,5.0;" x1="49" x2="49" y1="36.2969" y2="172.8281"/><line style="stroke:#181818;stroke-width:0.5;stroke-dasharray:5.0,5.0;" x1="260.564" x2="260.564" y1="36.2969" y2="172.8281"/><line style="stroke:#181818;stroke-width:0.5;stroke-dasharray:5.0,5.0;" x1="477.8433" x2="477.8433" y1="36.2969" y2="172.8281"/><rect fill="#E2E2F0" height="30.2969" rx="2.5" ry="2.5" style="stroke:#181818;stroke-width:0.5;" width="88.1016" x="5" y="5"/><text fill="#000000" font-family="sans-serif" font-size="14" lengthAdjust="spacing" textLength="74.1016" x="12" y="24.9951">update_db</text><rect fill="#E2E2F0" height="30.2969" rx="2.5" ry="2.5" style="stroke:#181818;stroke-width:0.5;" width="97.3643" x="212.564" y="5"/><text fill="#000000" font-family="sans-serif" font-size="14" lengthAdjust="spacing" textLength="83.3643" x="219.564" y="24.9951">CSVHandler</text><rect fill="#E2E2F0" height="30.2969" rx="2.5" ry="2.5" style="stroke:#181818;stroke-width:0.5;" width="99.1963" x="428.8433" y="5"/><text fill="#000000" font-family="sans-serif" font-size="14" lengthAdjust="spacing" textLength="85.1963" x="435.8433" y="24.9951">GDPHandler</text><rect fill="#FFFFFF" height="87.3984" style="stroke:#181818;stroke-width:1;" width="10" x="256.2461" y="67.4297"/><rect fill="#FFFFFF" height="29.1328" style="stroke:#181818;stroke-width:1;" width="10" x="473.4414" y="96.5625"/><polygon fill="#181818" points="244.2461,63.4297,254.2461,67.4297,244.2461,71.4297,248.2461,67.4297" style="stroke:#181818;stroke-width:1;"/><line style="stroke:#181818;stroke-width:1;" x1="49.0508" x2="250.2461" y1="67.4297" y2="67.4297"/><text fill="#000000" font-family="sans-serif" font-size="13" lengthAdjust="spacing" textLength="188.1953" x="56.0508" y="62.3638">handle(file_path, prm_name)</text><polygon fill="#181818" points="461.4414,92.5625,471.4414,96.5625,461.4414,100.5625,465.4414,96.5625" style="stroke:#181818;stroke-width:1;"/><line style="stroke:#181818;stroke-width:1;" x1="266.2461" x2="467.4414" y1="96.5625" y2="96.5625"/><text fill="#000000" font-family="sans-serif" font-size="13" lengthAdjust="spacing" textLength="188.1953" x="273.2461" y="91.4966">handle(file_path, prm_name)</text><polygon fill="#181818" points="277.2461,121.6953,267.2461,125.6953,277.2461,129.6953,273.2461,125.6953" style="stroke:#181818;stroke-width:1;"/><line style="stroke:#181818;stroke-width:1;" x1="271.2461" x2="477.4414" y1="125.6953" y2="125.6953"/><text fill="#000000" font-family="sans-serif" font-size="13" lengthAdjust="spacing" textLength="29.2817" x="283.2461" y="120.6294">data</text><polygon fill="#181818" points="60.0508,150.8281,50.0508,154.8281,60.0508,158.8281,56.0508,154.8281" style="stroke:#181818;stroke-width:1;"/><line style="stroke:#181818;stroke-width:1;" x1="54.0508" x2="260.2461" y1="154.8281" y2="154.8281"/><text fill="#000000" font-family="sans-serif" font-size="13" lengthAdjust="spacing" textLength="29.2817" x="66.0508" y="149.7622">data</text><!--SRC=[oyXCILL8oyylISgluE8gBKX9B4cDJqbIqBLJS0uEyqZCIyb9BR9Io00pDD8oSrBZ2n9BCdGK2efou_CISrCrkHAJIpBBWDgGD71n8TWWeznT0aWp2g41nIWRNHIZW8vDv4f9XUj2qORm2r0NibymT2790W00]--></g></svg>