<?xml version="1.0" encoding="UTF-8" standalone="no"?><svg xmlns="http://www.w3.org/2000/svg" xmlns:xlink="http://www.w3.org/1999/xlink" contentStyleType="text/css" height="287px" preserveAspectRatio="none" style="width:446px;height:287px;background:#FFFFFF;" version="1.1" viewBox="0 0 446 287" width="446px" zoomAndPan="magnify"><defs/><g><!--MD5=[18d97ae85c5edb8f0adcaad201d89b9a]
class SearchInfoExpr--><g id="elem_SearchInfoExpr"><rect codeLine="3" fill="#F1F1F1" height="80.5938" id="SearchInfoExpr" rx="2.5" ry="2.5" style="stroke:#181818;stroke-width:0.5;" width="142" x="109" y="7"/><ellipse cx="124" cy="23" fill="#ADD1B2" rx="11" ry="11" style="stroke:#181818;stroke-width:1.0;"/><path d="M126.3438,18.6719 C125.4063,18.2344 124.8125,18.0938 123.9375,18.0938 C121.3125,18.0938 119.3125,20.1719 119.3125,22.8906 L119.3125,24.0156 C119.3125,26.5938 121.4219,28.4844 124.3125,28.4844 C125.5313,28.4844 126.6875,28.1875 127.4375,27.6406 C128.0156,27.2344 128.3438,26.7813 128.3438,26.3906 C128.3438,25.9375 127.9531,25.5469 127.4844,25.5469 C127.2656,25.5469 127.0625,25.625 126.875,25.8125 C126.4219,26.2969 126.4219,26.2969 126.2344,26.3906 C125.8125,26.6563 125.125,26.7813 124.3594,26.7813 C122.3125,26.7813 121.0156,25.6875 121.0156,23.9844 L121.0156,22.8906 C121.0156,21.1094 122.2656,19.7969 124,19.7969 C124.5781,19.7969 125.1875,19.9531 125.6563,20.2031 C126.1406,20.4844 126.3125,20.7031 126.4063,21.1094 C126.4688,21.5156 126.5,21.6406 126.6406,21.7656 C126.7813,21.9063 127.0156,22.0156 127.2344,22.0156 C127.5,22.0156 127.7656,21.875 127.9375,21.6563 C128.0469,21.5 128.0781,21.3125 128.0781,20.8906 L128.0781,19.4688 C128.0781,19.0313 128.0625,18.9063 127.9688,18.75 C127.8125,18.4844 127.5313,18.3438 127.2344,18.3438 C126.9375,18.3438 126.7344,18.4375 126.5156,18.75 L126.3438,18.6719 Z " fill="#000000"/><text fill="#000000" font-family="sans-serif" font-size="14" lengthAdjust="spacing" textLength="110" x="138" y="27.8467">SearchInfoExpr</text><line style="stroke:#181818;stroke-width:0.5;" x1="110" x2="250" y1="39" y2="39"/><line style="stroke:#181818;stroke-width:0.5;" x1="110" x2="250" y1="47" y2="47"/><text fill="#000000" font-family="sans-serif" font-size="14" font-style="italic" lengthAdjust="spacing" textLength="72" x="115" y="63.9951">interpret()</text><text fill="#000000" font-family="sans-serif" font-size="14" lengthAdjust="spacing" text-decoration="underline" textLength="39" x="115" y="80.292">eval()</text></g><!--MD5=[0b650b50ce3f685bd074aa11a4beb381]
class LogicalSearchInfoExpr--><g id="elem_LogicalSearchInfoExpr"><rect codeLine="8" fill="#F1F1F1" height="96.8906" id="LogicalSearchInfoExpr" rx="2.5" ry="2.5" style="stroke:#181818;stroke-width:0.5;" width="192" x="7" y="165"/><ellipse cx="22" cy="181" fill="#ADD1B2" rx="11" ry="11" style="stroke:#181818;stroke-width:1.0;"/><path d="M24.3438,176.6719 C23.4063,176.2344 22.8125,176.0938 21.9375,176.0938 C19.3125,176.0938 17.3125,178.1719 17.3125,180.8906 L17.3125,182.0156 C17.3125,184.5938 19.4219,186.4844 22.3125,186.4844 C23.5313,186.4844 24.6875,186.1875 25.4375,185.6406 C26.0156,185.2344 26.3438,184.7813 26.3438,184.3906 C26.3438,183.9375 25.9531,183.5469 25.4844,183.5469 C25.2656,183.5469 25.0625,183.625 24.875,183.8125 C24.4219,184.2969 24.4219,184.2969 24.2344,184.3906 C23.8125,184.6563 23.125,184.7813 22.3594,184.7813 C20.3125,184.7813 19.0156,183.6875 19.0156,181.9844 L19.0156,180.8906 C19.0156,179.1094 20.2656,177.7969 22,177.7969 C22.5781,177.7969 23.1875,177.9531 23.6563,178.2031 C24.1406,178.4844 24.3125,178.7031 24.4063,179.1094 C24.4688,179.5156 24.5,179.6406 24.6406,179.7656 C24.7813,179.9063 25.0156,180.0156 25.2344,180.0156 C25.5,180.0156 25.7656,179.875 25.9375,179.6563 C26.0469,179.5 26.0781,179.3125 26.0781,178.8906 L26.0781,177.4688 C26.0781,177.0313 26.0625,176.9063 25.9688,176.75 C25.8125,176.4844 25.5313,176.3438 25.2344,176.3438 C24.9375,176.3438 24.7344,176.4375 24.5156,176.75 L24.3438,176.6719 Z " fill="#000000"/><text fill="#000000" font-family="sans-serif" font-size="14" lengthAdjust="spacing" textLength="160" x="36" y="185.8467">LogicalSearchInfoExpr</text><line style="stroke:#181818;stroke-width:0.5;" x1="8" x2="198" y1="197" y2="197"/><text fill="#000000" font-family="sans-serif" font-size="14" lengthAdjust="spacing" textLength="120" x="13" y="213.9951">_expression: List</text><line style="stroke:#181818;stroke-width:0.5;" x1="8" x2="198" y1="221.2969" y2="221.2969"/><text fill="#000000" font-family="sans-serif" font-size="14" lengthAdjust="spacing" textLength="77" x="13" y="238.292">interpret()</text><text fill="#000000" font-family="sans-serif" font-size="14" font-style="italic" lengthAdjust="spacing" textLength="59" x="13" y="254.5889">fct(*arg)</text></g><!--MD5=[8f6afd779d490e1cdb74f383bcd7e8e9]
class TerminalSearchInfoExpr--><g id="elem_TerminalSearchInfoExpr"><rect codeLine="17" fill="#F1F1F1" height="80.5938" id="TerminalSearchInfoExpr" rx="2.5" ry="2.5" style="stroke:#181818;stroke-width:0.5;" width="205" x="234.5" y="173"/><ellipse cx="249.5" cy="189" fill="#ADD1B2" rx="11" ry="11" style="stroke:#181818;stroke-width:1.0;"/><path d="M251.8438,184.6719 C250.9063,184.2344 250.3125,184.0938 249.4375,184.0938 C246.8125,184.0938 244.8125,186.1719 244.8125,188.8906 L244.8125,190.0156 C244.8125,192.5938 246.9219,194.4844 249.8125,194.4844 C251.0313,194.4844 252.1875,194.1875 252.9375,193.6406 C253.5156,193.2344 253.8438,192.7813 253.8438,192.3906 C253.8438,191.9375 253.4531,191.5469 252.9844,191.5469 C252.7656,191.5469 252.5625,191.625 252.375,191.8125 C251.9219,192.2969 251.9219,192.2969 251.7344,192.3906 C251.3125,192.6563 250.625,192.7813 249.8594,192.7813 C247.8125,192.7813 246.5156,191.6875 246.5156,189.9844 L246.5156,188.8906 C246.5156,187.1094 247.7656,185.7969 249.5,185.7969 C250.0781,185.7969 250.6875,185.9531 251.1563,186.2031 C251.6406,186.4844 251.8125,186.7031 251.9063,187.1094 C251.9688,187.5156 252,187.6406 252.1406,187.7656 C252.2813,187.9063 252.5156,188.0156 252.7344,188.0156 C253,188.0156 253.2656,187.875 253.4375,187.6563 C253.5469,187.5 253.5781,187.3125 253.5781,186.8906 L253.5781,185.4688 C253.5781,185.0313 253.5625,184.9063 253.4688,184.75 C253.3125,184.4844 253.0313,184.3438 252.7344,184.3438 C252.4375,184.3438 252.2344,184.4375 252.0156,184.75 L251.8438,184.6719 Z " fill="#000000"/><text fill="#000000" font-family="sans-serif" font-size="14" lengthAdjust="spacing" textLength="173" x="263.5" y="193.8467">TerminalSearchInfoExpr</text><line style="stroke:#181818;stroke-width:0.5;" x1="235.5" x2="438.5" y1="205" y2="205"/><line style="stroke:#181818;stroke-width:0.5;" x1="235.5" x2="438.5" y1="213" y2="213"/><text fill="#000000" font-family="sans-serif" font-size="14" lengthAdjust="spacing" textLength="77" x="240.5" y="229.9951">interpret()</text><text fill="#000000" font-family="sans-serif" font-size="14" font-style="italic" lengthAdjust="spacing" textLength="73" x="240.5" y="246.292">get_filter()</text></g><!--MD5=[4e4bd3825a28ab5c40f35d522751aaf9]
reverse link SearchInfoExpr to LogicalSearchInfoExpr--><g id="link_SearchInfoExpr_LogicalSearchInfoExpr"><path codeLine="14" d="M108.361,103.661 C105.1235,108.208 102.2825,112.994 100,118 C93.4631,132.338 92.2507,149.212 93.2888,164.7029 " fill="none" id="SearchInfoExpr-backto-LogicalSearchInfoExpr" style="stroke:#181818;stroke-width:1.0;"/><polygon fill="none" points="103.213,98.911,121.534,88.265,113.851,108.013,103.213,98.911" style="stroke:#181818;stroke-width:1.0;"/><text fill="#000000" font-family="sans-serif" font-size="13" lengthAdjust="spacing" textLength="52" x="101" y="131.0669">extends</text></g><!--MD5=[5f3ddfebb574b467f1892ba4571be64d]
link LogicalSearchInfoExpr to SearchInfoExpr--><g id="link_LogicalSearchInfoExpr_SearchInfoExpr"><path codeLine="15" d="M147.2537,154.8575 C147.2537,154.8575 155.057,141.364 158,135 C162.914,124.372 166.844,112.483 169.943,101.001 " fill="none" id="LogicalSearchInfoExpr-SearchInfoExpr" style="stroke:#181818;stroke-width:1.0;"/><polygon fill="#181818" points="173.096,88.302,167.045,96.0728,171.8911,93.1546,174.8093,98.0007,173.096,88.302" style="stroke:#181818;stroke-width:1.0;"/><line style="stroke:#181818;stroke-width:1.0;" x1="171.8911" x2="169.963" y1="93.1546" y2="100.9185"/><polygon fill="none" points="140.801,164.975,147.3998,162.0672,147.2537,154.8575,140.6548,157.7654,140.801,164.975" style="stroke:#181818;stroke-width:1.0;"/></g><!--MD5=[e08c7e35c031be68aa4bd81ce76f5cae]
reverse link SearchInfoExpr to TerminalSearchInfoExpr--><g id="link_SearchInfoExpr_TerminalSearchInfoExpr"><path codeLine="22" d="M231.885,102.699 C253.825,125.617 278.911,151.821 299.073,172.8819 " fill="none" id="SearchInfoExpr-backto-TerminalSearchInfoExpr" style="stroke:#181818;stroke-width:1.0;"/><polygon fill="none" points="226.779,107.488,218.005,88.2,236.892,97.806,226.779,107.488" style="stroke:#181818;stroke-width:1.0;"/><text fill="#000000" font-family="sans-serif" font-size="13" lengthAdjust="spacing" textLength="52" x="260" y="131.0669">extends</text></g><rect height="11.6406" style="stroke:#00000000;stroke-width:1.0;fill:none;" width="140" x="146.25" y="267.8906"/><text fill="#888888" font-family="sans-serif" font-size="10" lengthAdjust="spacing" textLength="140" x="146.25" y="277.1729">Interpreter design pattern</text><!--MD5=[a94eb09bf9273a32dfc5897f09f2bcb0]
@startuml
footer Interpreter design pattern

class SearchInfoExpr {
    {abstract} interpret()
    {static} eval()
}

class LogicalSearchInfoExpr {
    _expression: List
    interpret()
    {abstract} fct(*arg)
}

SearchInfoExpr <|- - LogicalSearchInfoExpr : extends
LogicalSearchInfoExpr o- -> SearchInfoExpr

class TerminalSearchInfoExpr {
    interpret()
    {abstract} get_filter()
}

SearchInfoExpr <|- - TerminalSearchInfoExpr : extends
@enduml

PlantUML version 1.2022.7beta2(Unknown compile time)
(GPL source distribution)
Java Runtime: Java(TM) SE Runtime Environment
JVM: Java HotSpot(TM) 64-Bit Server VM
Default Encoding: UTF-8
Language: en
Country: US
--></g></svg>