<?xml version="1.0" encoding="us-ascii" standalone="no"?><svg xmlns="http://www.w3.org/2000/svg" xmlns:xlink="http://www.w3.org/1999/xlink" contentStyleType="text/css" height="380px" preserveAspectRatio="none" style="width:284px;height:380px;background:#FFFFFF;" version="1.1" viewBox="0 0 284 380" width="284px" zoomAndPan="magnify"><defs/><g><!--class AbstractHandler--><g id="elem_AbstractHandler"><rect codeLine="3" fill="#F1F1F1" height="80.5938" id="AbstractHandler" rx="2.5" ry="2.5" style="stroke:#181818;stroke-width:0.5;" width="150" x="67" y="7"/><ellipse cx="82" cy="23" fill="#ADD1B2" rx="11" ry="11" style="stroke:#181818;stroke-width:1.0;"/><path d="M84.3438,18.6719 C83.4063,18.2344 82.8125,18.0938 81.9375,18.0938 C79.3125,18.0938 77.3125,20.1719 77.3125,22.8906 L77.3125,24.0156 C77.3125,26.5938 79.4219,28.4844 82.3125,28.4844 C83.5313,28.4844 84.6875,28.1875 85.4375,27.6406 C86.0156,27.2344 86.3438,26.7813 86.3438,26.3906 C86.3438,25.9375 85.9531,25.5469 85.4844,25.5469 C85.2656,25.5469 85.0625,25.625 84.875,25.8125 C84.4219,26.2969 84.4219,26.2969 84.2344,26.3906 C83.8125,26.6563 83.125,26.7813 82.3594,26.7813 C80.3125,26.7813 79.0156,25.6875 79.0156,23.9844 L79.0156,22.8906 C79.0156,21.1094 80.2656,19.7969 82,19.7969 C82.5781,19.7969 83.1875,19.9531 83.6563,20.2031 C84.1406,20.4844 84.3125,20.7031 84.4063,21.1094 C84.4688,21.5156 84.5,21.6406 84.6406,21.7656 C84.7813,21.9063 85.0156,22.0156 85.2344,22.0156 C85.5,22.0156 85.7656,21.875 85.9375,21.6563 C86.0469,21.5 86.0781,21.3125 86.0781,20.8906 L86.0781,19.4688 C86.0781,19.0313 86.0625,18.9063 85.9688,18.75 C85.8125,18.4844 85.5313,18.3438 85.2344,18.3438 C84.9375,18.3438 84.7344,18.4375 84.5156,18.75 L84.3438,18.6719 Z " fill="#000000"/><text fill="#000000" font-family="sans-serif" font-size="14" lengthAdjust="spacing" textLength="118" x="96" y="27.8467">AbstractHandler</text><line style="stroke:#181818;stroke-width:0.5;" x1="68" x2="216" y1="39" y2="39"/><text fill="#000000" font-family="sans-serif" font-size="14" font-style="italic" lengthAdjust="spacing" textLength="49" x="73" y="55.9951">handle</text><line style="stroke:#181818;stroke-width:0.5;" x1="68" x2="216" y1="63.2969" y2="63.2969"/><text fill="#000000" font-family="sans-serif" font-size="14" lengthAdjust="spacing" textLength="127" x="73" y="80.292">set_next(handler)</text></g><!--class FileHandler--><g id="elem_FileHandler"><rect codeLine="8" fill="#F1F1F1" height="80.5938" id="FileHandler" rx="2.5" ry="2.5" style="stroke:#181818;stroke-width:0.5;" width="270" x="7" y="165"/><ellipse cx="97.75" cy="181" fill="#ADD1B2" rx="11" ry="11" style="stroke:#181818;stroke-width:1.0;"/><path d="M100.0938,176.6719 C99.1563,176.2344 98.5625,176.0938 97.6875,176.0938 C95.0625,176.0938 93.0625,178.1719 93.0625,180.8906 L93.0625,182.0156 C93.0625,184.5938 95.1719,186.4844 98.0625,186.4844 C99.2813,186.4844 100.4375,186.1875 101.1875,185.6406 C101.7656,185.2344 102.0938,184.7813 102.0938,184.3906 C102.0938,183.9375 101.7031,183.5469 101.2344,183.5469 C101.0156,183.5469 100.8125,183.625 100.625,183.8125 C100.1719,184.2969 100.1719,184.2969 99.9844,184.3906 C99.5625,184.6563 98.875,184.7813 98.1094,184.7813 C96.0625,184.7813 94.7656,183.6875 94.7656,181.9844 L94.7656,180.8906 C94.7656,179.1094 96.0156,177.7969 97.75,177.7969 C98.3281,177.7969 98.9375,177.9531 99.4063,178.2031 C99.8906,178.4844 100.0625,178.7031 100.1563,179.1094 C100.2188,179.5156 100.25,179.6406 100.3906,179.7656 C100.5313,179.9063 100.7656,180.0156 100.9844,180.0156 C101.25,180.0156 101.5156,179.875 101.6875,179.6563 C101.7969,179.5 101.8281,179.3125 101.8281,178.8906 L101.8281,177.4688 C101.8281,177.0313 101.8125,176.9063 101.7188,176.75 C101.5625,176.4844 101.2813,176.3438 100.9844,176.3438 C100.6875,176.3438 100.4844,176.4375 100.2656,176.75 L100.0938,176.6719 Z " fill="#000000"/><text fill="#000000" font-family="sans-serif" font-size="14" lengthAdjust="spacing" textLength="80" x="118.25" y="185.8467">FileHandler</text><line style="stroke:#181818;stroke-width:0.5;" x1="8" x2="276" y1="197" y2="197"/><line style="stroke:#181818;stroke-width:0.5;" x1="8" x2="276" y1="205" y2="205"/><text fill="#000000" font-family="sans-serif" font-size="14" font-style="italic" lengthAdjust="spacing" textLength="186" x="13" y="221.9951">get_main(*args, **kwargs)</text><text fill="#000000" font-family="sans-serif" font-size="14" font-style="italic" lengthAdjust="spacing" textLength="258" x="13" y="238.292">get_metadata_item(*args, **kwargs)</text></g><!--class CSVHandler--><g id="elem_CSVHandler"><rect fill="#F1F1F1" height="48" id="CSVHandler" rx="2.5" ry="2.5" style="stroke:#181818;stroke-width:0.5;" width="116" x="8" y="307"/><ellipse cx="23" cy="323" fill="#ADD1B2" rx="11" ry="11" style="stroke:#181818;stroke-width:1.0;"/><path d="M25.3438,318.6719 C24.4063,318.2344 23.8125,318.0938 22.9375,318.0938 C20.3125,318.0938 18.3125,320.1719 18.3125,322.8906 L18.3125,324.0156 C18.3125,326.5938 20.4219,328.4844 23.3125,328.4844 C24.5313,328.4844 25.6875,328.1875 26.4375,327.6406 C27.0156,327.2344 27.3438,326.7813 27.3438,326.3906 C27.3438,325.9375 26.9531,325.5469 26.4844,325.5469 C26.2656,325.5469 26.0625,325.625 25.875,325.8125 C25.4219,326.2969 25.4219,326.2969 25.2344,326.3906 C24.8125,326.6563 24.125,326.7813 23.3594,326.7813 C21.3125,326.7813 20.0156,325.6875 20.0156,323.9844 L20.0156,322.8906 C20.0156,321.1094 21.2656,319.7969 23,319.7969 C23.5781,319.7969 24.1875,319.9531 24.6563,320.2031 C25.1406,320.4844 25.3125,320.7031 25.4063,321.1094 C25.4688,321.5156 25.5,321.6406 25.6406,321.7656 C25.7813,321.9063 26.0156,322.0156 26.2344,322.0156 C26.5,322.0156 26.7656,321.875 26.9375,321.6563 C27.0469,321.5 27.0781,321.3125 27.0781,320.8906 L27.0781,319.4688 C27.0781,319.0313 27.0625,318.9063 26.9688,318.75 C26.8125,318.4844 26.5313,318.3438 26.2344,318.3438 C25.9375,318.3438 25.7344,318.4375 25.5156,318.75 L25.3438,318.6719 Z " fill="#000000"/><text fill="#000000" font-family="sans-serif" font-size="14" lengthAdjust="spacing" textLength="84" x="37" y="327.8467">CSVHandler</text><line style="stroke:#181818;stroke-width:0.5;" x1="9" x2="123" y1="339" y2="339"/><line style="stroke:#181818;stroke-width:0.5;" x1="9" x2="123" y1="347" y2="347"/></g><!--class GDPHandler--><g id="elem_GDPHandler"><rect fill="#F1F1F1" height="48" id="GDPHandler" rx="2.5" ry="2.5" style="stroke:#181818;stroke-width:0.5;" width="118" x="159" y="307"/><ellipse cx="174" cy="323" fill="#ADD1B2" rx="11" ry="11" style="stroke:#181818;stroke-width:1.0;"/><path d="M176.3438,318.6719 C175.4063,318.2344 174.8125,318.0938 173.9375,318.0938 C171.3125,318.0938 169.3125,320.1719 169.3125,322.8906 L169.3125,324.0156 C169.3125,326.5938 171.4219,328.4844 174.3125,328.4844 C175.5313,328.4844 176.6875,328.1875 177.4375,327.6406 C178.0156,327.2344 178.3438,326.7813 178.3438,326.3906 C178.3438,325.9375 177.9531,325.5469 177.4844,325.5469 C177.2656,325.5469 177.0625,325.625 176.875,325.8125 C176.4219,326.2969 176.4219,326.2969 176.2344,326.3906 C175.8125,326.6563 175.125,326.7813 174.3594,326.7813 C172.3125,326.7813 171.0156,325.6875 171.0156,323.9844 L171.0156,322.8906 C171.0156,321.1094 172.2656,319.7969 174,319.7969 C174.5781,319.7969 175.1875,319.9531 175.6563,320.2031 C176.1406,320.4844 176.3125,320.7031 176.4063,321.1094 C176.4688,321.5156 176.5,321.6406 176.6406,321.7656 C176.7813,321.9063 177.0156,322.0156 177.2344,322.0156 C177.5,322.0156 177.7656,321.875 177.9375,321.6563 C178.0469,321.5 178.0781,321.3125 178.0781,320.8906 L178.0781,319.4688 C178.0781,319.0313 178.0625,318.9063 177.9688,318.75 C177.8125,318.4844 177.5313,318.3438 177.2344,318.3438 C176.9375,318.3438 176.7344,318.4375 176.5156,318.75 L176.3438,318.6719 Z " fill="#000000"/><text fill="#000000" font-family="sans-serif" font-size="14" lengthAdjust="spacing" textLength="86" x="188" y="327.8467">GDPHandler</text><line style="stroke:#181818;stroke-width:0.5;" x1="160" x2="276" y1="339" y2="339"/><line style="stroke:#181818;stroke-width:0.5;" x1="160" x2="276" y1="347" y2="347"/></g><!--link AbstractHandler to AbstractHandler--><g id="link_AbstractHandler_AbstractHandler"><path codeLine="13" d="M223.0578,33.2537 C242.9378,34.0817 252,38.664 252,47.5 C252,56.336 248.9326,60.6686 229.0526,61.4966 " fill="none" id="AbstractHandler-AbstractHandler" style="stroke:#181818;stroke-width:1.0;"/><polygon fill="#181818" points="217.063,33.004,225.8887,37.3751,222.0587,33.2121,226.2217,29.382,217.063,33.004" style="stroke:#181818;stroke-width:1.0;"/><polygon fill="none" points="217.063,61.996,223.2243,65.7429,229.0526,61.4966,222.8913,57.7498,217.063,61.996" style="stroke:#181818;stroke-width:1.0;"/></g><!--reverse link AbstractHandler to FileHandler--><g id="link_AbstractHandler_FileHandler"><path codeLine="14" d="M142,106.269 C142,129.74 142,141.346 142,164.804 " fill="none" id="AbstractHandler-backto-FileHandler" style="stroke:#181818;stroke-width:1.0;"/><polygon fill="none" points="142,88.269,136,106.269,148,106.269,142,88.269" style="stroke:#181818;stroke-width:1.0;"/><text fill="#000000" font-family="sans-serif" font-size="13" lengthAdjust="spacing" textLength="52" x="143" y="131.0669">extends</text></g><!--reverse link FileHandler to CSVHandler--><g id="link_FileHandler_CSVHandler"><path codeLine="15" d="M108.1011,261.5858 C95.7773,281.6116 90.7029,289.8577 80.2254,306.8838 " fill="none" id="FileHandler-backto-CSVHandler" style="stroke:#181818;stroke-width:1.0;"/><polygon fill="none" points="117.535,246.256,102.9912,258.4411,113.211,264.7304,117.535,246.256" style="stroke:#181818;stroke-width:1.0;"/></g><!--reverse link FileHandler to GDPHandler--><g id="link_FileHandler_GDPHandler"><path codeLine="16" d="M175.899,261.5857 C188.223,281.6115 193.297,289.8577 203.775,306.8838 " fill="none" id="FileHandler-backto-GDPHandler" style="stroke:#181818;stroke-width:1.0;"/><polygon fill="none" points="166.465,246.256,170.7891,264.7304,181.0089,258.441,166.465,246.256" style="stroke:#181818;stroke-width:1.0;"/></g><text fill="#888888" font-family="sans-serif" font-size="10" lengthAdjust="spacing" textLength="202" x="34" y="370.2822">Chain of responsibility design pattern</text><!--SRC=[RO_13e8m38RlUueUaSWB62y6envDJBoQuYekZetG9cgGTtSA90BsjFxx-lVlnNkX2j8h6WV-0XLnwHsRp5WZJz349dTGeWJAANMso0ohZAN2i-pGQHkcQmMXcEJaw27HjPLdNxN63cwWrLNJssoCfQ753vm7joA4YcAiSfv37D_kdzViBqY26WLFHgYOJeIDuyZB9F7ZEwRGAqa6AHSGxYEdMVsgNomz77kRoTzslU_wDm00]--></g></svg>